<svg width="24" height="24" viewBox="0 0 24 24" fill="none" xmlns="http://www.w3.org/2000/svg">
<path d="M18.1158 11.9925C18.1158 9.06002 20.4988 7.73752 20.5988 7.67452C19.3008 5.67802 17.2038 5.44102 16.4178 5.44052C14.5963 5.44052 12.9863 6.45152 12.1253 6.45152C11.2268 6.45152 9.91626 5.39102 8.44376 5.44052C6.52226 5.47802 4.76226 6.61352 3.77676 8.28602C3.07826 9.48402 2.80326 10.8945 2.82876 12.3295C2.82976 12.386 2.83726 12.4435 2.83876 12.5H18.1598C18.1393 12.3355 18.1213 12.1685 18.1158 11.9925Z" fill="white"/>
<path d="M15.2823 3.5315C16.1303 2.5955 16.6048 1.3105 16.5298 0C15.3568 0 13.9968 0.686 13.1358 1.697C12.4618 2.533 11.7383 3.8435 12.0003 5.1535C13.2108 5.3035 14.5213 4.5425 15.2823 3.5315Z" fill="white"/>
<path d="M8.75536 22.5C10.1409 22.5 10.6524 21.576 12.4619 21.576C14.1469 21.576 14.6709 22.5 16.1309 22.5C17.6659 22.5 18.6769 21.1025 19.5874 19.7165C20.7349 18.1075 21.1224 16.5725 21.1719 16.5095C21.1249 16.5095 18.5284 15.4535 18.1589 12.5H2.83887C2.91737 15.1555 3.95287 17.895 5.17437 19.6545C6.13487 21.0275 7.22036 22.5 8.75536 22.5Z" fill="white"/>
</svg>
