<svg width="24" height="25" viewBox="0 0 24 25" fill="none" xmlns="http://www.w3.org/2000/svg">
<path d="M4 18.6631C3.71667 18.6631 3.479 18.5671 3.287 18.3751C3.095 18.1831 2.99934 17.9458 3 17.6631C3 17.3798 3.096 17.1421 3.288 16.9501C3.48 16.7581 3.71734 16.6624 4 16.6631H20C20.2833 16.6631 20.521 16.7591 20.713 16.9511C20.905 17.1431 21.0007 17.3804 21 17.6631C21 17.9464 20.904 18.1841 20.712 18.3761C20.52 18.5681 20.2827 18.6638 20 18.6631H4ZM4 13.6631C3.71667 13.6631 3.479 13.5671 3.287 13.3751C3.095 13.1831 2.99934 12.9458 3 12.6631C3 12.3798 3.096 12.1421 3.288 11.9501C3.48 11.7581 3.71734 11.6624 4 11.6631H20C20.2833 11.6631 20.521 11.7591 20.713 11.9511C20.905 12.1431 21.0007 12.3804 21 12.6631C21 12.9464 20.904 13.1841 20.712 13.3761C20.52 13.5681 20.2827 13.6638 20 13.6631H4ZM4 8.66309C3.71667 8.66309 3.479 8.56709 3.287 8.37509C3.095 8.18309 2.99934 7.94576 3 7.66309C3 7.37976 3.096 7.14209 3.288 6.95009C3.48 6.75809 3.71734 6.66242 4 6.66309H20C20.2833 6.66309 20.521 6.75909 20.713 6.95109C20.905 7.14309 21.0007 7.38042 21 7.66309C21 7.94642 20.904 8.18409 20.712 8.37609C20.52 8.56809 20.2827 8.66376 20 8.66309H4Z" fill="#5C29C4"/>
</svg>
