<svg width="16" height="15" viewBox="0 0 16 15" fill="none" xmlns="http://www.w3.org/2000/svg">
<path d="M5.60938 1.2334H10.7894C12.7627 1.2334 14.3661 2.83673 14.3661 4.81007V9.99007C14.3661 10.9387 13.9892 11.8484 13.3185 12.5192C12.6477 13.1899 11.738 13.5667 10.7894 13.5667H5.60938C3.63605 13.5667 2.03271 11.9634 2.03271 9.99007V4.81007C2.03271 3.86147 2.40954 2.95174 3.0803 2.28098C3.75105 1.61022 4.66079 1.2334 5.60938 1.2334ZM5.48605 2.46673C4.89727 2.46673 4.3326 2.70062 3.91627 3.11696C3.49994 3.53329 3.26605 4.09795 3.26605 4.68673V10.1134C3.26605 11.3406 4.25888 12.3334 5.48605 12.3334H10.9127C11.5015 12.3334 12.0662 12.0995 12.4825 11.6832C12.8988 11.2668 13.1327 10.7022 13.1327 10.1134V4.68673C13.1327 3.45957 12.1399 2.46673 10.9127 2.46673H5.48605ZM11.4369 3.39173C11.6413 3.39173 11.8374 3.47294 11.9819 3.6175C12.1265 3.76206 12.2077 3.95813 12.2077 4.16257C12.2077 4.367 12.1265 4.56307 11.9819 4.70763C11.8374 4.85219 11.6413 4.9334 11.4369 4.9334C11.2324 4.9334 11.0364 4.85219 10.8918 4.70763C10.7473 4.56307 10.666 4.367 10.666 4.16257C10.666 3.95813 10.7473 3.76206 10.8918 3.6175C11.0364 3.47294 11.2324 3.39173 11.4369 3.39173ZM8.19938 4.31673C9.01713 4.31673 9.80139 4.64158 10.3796 5.21982C10.9579 5.79806 11.2827 6.58232 11.2827 7.40007C11.2827 8.21782 10.9579 9.00208 10.3796 9.58031C9.80139 10.1586 9.01713 10.4834 8.19938 10.4834C7.38163 10.4834 6.59737 10.1586 6.01914 9.58031C5.4409 9.00208 5.11605 8.21782 5.11605 7.40007C5.11605 6.58232 5.4409 5.79806 6.01914 5.21982C6.59737 4.64158 7.38163 4.31673 8.19938 4.31673ZM8.19938 5.55007C7.70873 5.55007 7.23818 5.74498 6.89123 6.09192C6.54429 6.43886 6.34938 6.90942 6.34938 7.40007C6.34938 7.89072 6.54429 8.36127 6.89123 8.70821C7.23818 9.05516 7.70873 9.25007 8.19938 9.25007C8.69003 9.25007 9.16059 9.05516 9.50753 8.70821C9.85447 8.36127 10.0494 7.89072 10.0494 7.40007C10.0494 6.90942 9.85447 6.43886 9.50753 6.09192C9.16059 5.74498 8.69003 5.55007 8.19938 5.55007Z" fill="white"/>
</svg>
