<svg width="16" height="15" viewBox="0 0 16 15" fill="none" xmlns="http://www.w3.org/2000/svg">
<g clip-path="url(#clip0_1480_2151)">
<path d="M0.600098 1.06005C0.600098 0.474525 1.08665 0 1.68697 0H14.3132C14.9135 0 15.4001 0.474525 15.4001 1.06005V13.74C15.4001 14.3255 14.9135 14.8 14.3132 14.8H1.68697C1.08665 14.8 0.600098 14.3255 0.600098 13.74V1.06005ZM5.17237 12.3895V5.70633H2.95145V12.3895H5.17237ZM4.06237 4.79335C4.8366 4.79335 5.31852 4.2809 5.31852 3.63895C5.30465 2.98313 4.83752 2.48455 4.07717 2.48455C3.31682 2.48455 2.8201 2.98405 2.8201 3.63895C2.8201 4.2809 3.30202 4.79335 4.04757 4.79335H4.06237ZM8.60227 12.3895V8.65708C8.60227 8.45728 8.61707 8.25748 8.67627 8.11503C8.8363 7.71635 9.20167 7.30288 9.81587 7.30288C10.6197 7.30288 10.9407 7.91523 10.9407 8.81433V12.3895H13.1616V8.55625C13.1616 6.50275 12.0664 5.54815 10.6049 5.54815C9.42645 5.54815 8.89827 6.19565 8.60227 6.65168V6.6748H8.58747C8.59239 6.66708 8.59732 6.65937 8.60227 6.65168V5.70633H6.38227C6.41002 6.33348 6.38227 12.3895 6.38227 12.3895H8.60227Z" fill="white"/>
</g>
<defs>
<clipPath id="clip0_1480_2151">
<rect width="14.8" height="14.8" fill="white" transform="translate(0.600098)"/>
</clipPath>
</defs>
</svg>
