<svg width="295" height="72" viewBox="0 0 295 72" fill="none" xmlns="http://www.w3.org/2000/svg">
<mask id="mask0_2720_1421" style="mask-type:luminance" maskUnits="userSpaceOnUse" x="0" y="0" width="295" height="72">
<path d="M294.698 0H0V72H294.698V0Z" fill="white"/>
</mask>
<g mask="url(#mask0_2720_1421)">
<path d="M71.176 36C70.9315 49.0127 69.9239 59.37 64.1783 64.9212C58.6872 70.7333 48.4418 71.7493 35.5881 72C22.7242 71.7493 12.4854 70.7333 6.9944 64.9212C1.24888 59.3667 0.244418 49.0127 0 36C0.244418 22.9873 1.24888 12.63 6.9944 7.07536C12.4888 1.26334 22.7242 0.247248 35.5881 0C48.4518 0.247248 58.6905 1.26334 64.1783 7.07536C69.9272 12.6334 70.9315 22.9873 71.176 36Z" fill="white"/>
<path d="M54.5228 19.8583L54.091 19.4314C53.9302 19.2824 53.7561 19.13 53.6021 18.9844L54.8142 20.1563L54.5228 19.8583Z" fill="white"/>
<path d="M60.4221 42.0671C59.3392 46.2143 57.1255 49.9698 54.0337 52.9054C48.931 57.5794 42.7368 59.9502 35.5985 59.9502C28.4032 59.9502 22.2056 57.5996 17.1834 52.9562C12.3887 48.3296 9.94787 42.6429 9.94787 36.0417C9.9439 34.7407 10.0447 33.4413 10.2492 32.1569C10.9825 27.5472 13.0583 23.4286 16.4467 19.8588C16.6878 19.6081 16.9322 19.361 17.1867 19.1069C22.209 14.4295 28.4166 12.0586 35.6018 12.0586H36.3719L36.4087 12.1534C42.7571 12.3113 48.847 14.7305 53.605 18.9849L54.8171 20.1568L56.0058 21.3016L47.4544 29.5523L44.9131 27.0968C42.3534 24.8607 39.0704 23.6553 35.6889 23.7098C31.8083 23.7098 28.6007 24.8884 25.8652 27.3372C24.3378 28.6253 23.1572 30.2832 22.4334 32.1569C21.9843 33.4015 21.7576 34.7169 21.7636 36.0417C21.7636 39.4625 23.103 42.3144 25.8585 44.7495C26.8937 45.6852 28.0617 46.4581 29.3239 47.0424C31.324 47.9456 33.4956 48.3942 35.6855 48.3567C40.825 48.3567 45.1408 45.786 47.4041 42.5208H34.0649L44.8193 32.0959H61.0582V32.1569L61.1251 33.0036C61.3989 36.0432 61.1611 39.1079 60.4221 42.0671Z" fill="#5C29C4"/>
<path d="M101.825 18.6278C106.629 18.746 111.224 20.6359 114.746 23.9419L115.282 24.4704L109.04 30.4653L108.481 29.9335C106.557 28.0496 103.974 27.0133 101.296 27.0511C98.6569 26.9801 96.0904 27.931 94.1209 29.7099C92.1121 31.4847 91.1311 33.571 91.1311 36.0706C91.1311 38.5701 92.1088 40.6531 94.1209 42.4313C96.1332 44.2096 98.4501 45.0664 101.296 45.0664C105.05 45.0664 108.207 43.1867 109.864 40.8056H100.111V33.1917H119.828L119.879 33.869C120.388 40.3653 118.161 45.0461 114.696 48.4127C110.969 51.82 106.442 53.5473 101.226 53.5473C96.0093 53.5473 91.4557 51.82 87.7896 48.433C84.2773 45.0461 82.4961 40.9004 82.4961 36.0774C82.4961 31.2544 84.2773 27.1359 87.7863 23.7082C91.4691 20.2873 95.9926 18.5566 101.236 18.5566H101.802L101.825 18.6278Z" fill="white"/>
<path d="M122.916 53.273V18.8242H131.25V53.273H122.916Z" fill="white"/>
<path d="M153.518 18.6278C158.32 18.7433 162.915 20.6296 166.439 23.9317L166.971 24.4601L160.734 30.4551L160.181 29.9335C158.261 28.0538 155.684 27.0178 153.013 27.0511C150.373 26.9801 147.807 27.931 145.837 29.7099C143.828 31.4847 142.847 33.571 142.847 36.0706C142.847 38.5701 143.825 40.6531 145.837 42.4313C147.85 44.2096 150.167 45.0664 153.013 45.0664C156.766 45.0664 159.923 43.1867 161.581 40.8056H151.814V33.1917H171.531L171.581 33.869C172.09 40.3653 169.865 45.0461 166.399 48.4127C162.672 51.82 158.145 53.5473 152.929 53.5473C147.712 53.5473 143.149 51.82 139.482 48.433C135.97 45.0461 134.189 40.9004 134.189 36.0774C134.189 31.2544 135.97 27.1359 139.479 23.7082C143.162 20.2873 147.686 18.5566 152.929 18.5566H153.495L153.518 18.6278Z" fill="white"/>
<path d="M174.608 18.8242H182.931V44.9038H198.103V53.2797H174.608V18.8242Z" fill="white"/>
<path d="M201.06 53.273V18.8242H209.383V53.273H201.06Z" fill="white"/>
<path d="M215.409 18.7383L235.345 36.8654V18.7383H243.943V53.2852H242.074L222.184 35.199V53.2852H213.616V18.7383H215.409Z" fill="white"/>
<path d="M248.162 18.8242H256.472V32.0334L265.512 18.8242H275.124L264.283 36.2805L276.882 53.273H266.747L256.472 40.4669V53.273H248.169L248.162 18.8242Z" fill="white"/>
<path d="M291.994 15.0958C292.692 15.7766 293.246 16.596 293.618 17.5028C293.99 18.4095 294.174 19.3842 294.155 20.3659C294.155 22.342 293.38 24.2373 291.999 25.6348C290.617 27.0321 288.744 27.8172 286.79 27.8172C284.837 27.8172 282.964 27.0321 281.582 25.6348C280.201 24.2373 279.424 22.342 279.424 20.3659C279.407 19.3845 279.59 18.41 279.961 17.5031C280.333 16.5964 280.886 15.7769 281.584 15.0958C282.267 14.4035 283.079 13.8543 283.973 13.4796C284.867 13.105 285.825 12.9121 286.793 12.9121C287.761 12.9121 288.719 13.105 289.613 13.4796C290.507 13.8543 291.319 14.4035 292.004 15.0958H291.994ZM286.783 14.4489C285.629 14.4502 284.499 14.7978 283.54 15.4477C282.58 16.0977 281.832 17.0207 281.391 18.1006C280.949 19.1802 280.834 20.3679 281.06 21.5139C281.286 22.6597 281.842 23.7122 282.659 24.5384C283.476 25.3645 284.516 25.9271 285.649 26.1555C286.781 26.3837 287.955 26.2672 289.023 25.8208C290.09 25.3742 291.003 24.6177 291.645 23.6469C292.288 22.6761 292.632 21.5343 292.633 20.3659C292.625 18.7991 292.005 17.2987 290.91 16.1908C289.815 15.0829 288.332 14.4569 286.783 14.4489ZM287.962 21.609L289.797 24.4776H287.814L285.718 21.2431V24.4776H284.082V16.2236H286.733C288.32 16.2236 289.65 17.3888 289.65 18.9569V19.2042C289.648 19.7321 289.484 20.2465 289.182 20.677C288.881 21.1075 288.454 21.433 287.962 21.609ZM286.622 17.863H285.705V20.183H286.867C287.166 20.1698 287.449 20.0369 287.652 19.8133C287.855 19.5898 287.962 19.2939 287.948 18.9909C287.962 18.2693 287.439 17.863 286.636 17.863H286.622Z" fill="white"/>
</g>
</svg>
