<svg width="176" height="44" viewBox="0 0 176 44" fill="none" xmlns="http://www.w3.org/2000/svg">
<g clip-path="url(#clip0_2659_7354)">
<path d="M42.5079 22C42.3619 29.7715 41.7601 35.9571 38.3287 39.2724C35.0493 42.7435 28.9305 43.3503 21.254 43.5C13.5714 43.3503 7.45658 42.7435 4.17721 39.2724C0.745858 35.9551 0.145972 29.7715 0 22C0.145972 14.2285 0.745858 8.0429 4.17721 4.72556C7.45858 1.25449 13.5714 0.647662 21.254 0.5C28.9365 0.647662 35.0513 1.25449 38.3287 4.72556C41.7621 8.04492 42.3619 14.2285 42.5079 22Z" fill="#5C29C4"/>
<path d="M32.5621 12.3598L32.3042 12.1049C32.2082 12.0159 32.1042 11.9249 32.0122 11.8379L32.7361 12.5378L32.5621 12.3598Z" fill="white"/>
<path d="M36.0853 25.6229C35.4386 28.0997 34.1165 30.3426 32.27 32.0958C29.2226 34.8872 25.5233 36.3031 21.2601 36.3031C16.9629 36.3031 13.2616 34.8993 10.2622 32.1261C7.39871 29.363 5.94099 25.9668 5.94099 22.0244C5.93862 21.2474 5.99881 20.4714 6.12095 19.7043C6.55887 16.9513 7.79863 14.4916 9.82225 12.3596C9.96622 12.2099 10.1122 12.0623 10.2642 11.9106C13.2636 9.11711 16.9709 7.70117 21.2621 7.70117H21.722L21.744 7.75781C25.5354 7.8521 29.1724 9.29692 32.014 11.8377L32.7379 12.5376L33.4478 13.2213L28.3407 18.1488L26.823 16.6823C25.2943 15.3469 23.3336 14.627 21.3141 14.6595C18.9965 14.6595 17.0809 15.3634 15.4472 16.8259C14.535 17.5952 13.8299 18.5853 13.3976 19.7043C13.1294 20.4476 12.994 21.2332 12.9976 22.0244C12.9976 24.0674 13.7975 25.7706 15.4432 27.2249C16.0614 27.7837 16.759 28.2453 17.5128 28.5943C18.7073 29.1337 20.0042 29.4016 21.3121 29.3792C24.3815 29.3792 26.959 27.8439 28.3107 25.8939H20.3442L26.767 19.6679H36.4652V19.7043L36.5052 20.21C36.6687 22.0253 36.5267 23.8556 36.0853 25.6229Z" fill="white"/>
<path d="M60.8124 11.6255C63.6811 11.6961 66.4254 12.8248 68.5289 14.7992L68.8488 15.1148L65.1215 18.6951L64.7876 18.3775C63.6384 17.2524 62.0955 16.6335 60.4964 16.6561C58.9202 16.6137 57.3874 17.1816 56.2112 18.244C55.0115 19.3039 54.4256 20.5499 54.4256 22.0427C54.4256 23.5355 55.0095 24.7795 56.2112 25.8415C57.413 26.9035 58.7967 27.4152 60.4964 27.4152C62.738 27.4152 64.6236 26.2926 65.6134 24.8706H59.7886V20.3234H71.5643L71.5943 20.7279C71.8983 24.6076 70.5685 27.4031 68.4989 29.4137C66.2733 31.4486 63.5698 32.4802 60.4544 32.4802C57.339 32.4802 54.6195 31.4486 52.43 29.4258C50.3324 27.4031 49.2686 24.9272 49.2686 22.0468C49.2686 19.1664 50.3324 16.7067 52.428 14.6596C54.6275 12.6166 57.329 11.583 60.4604 11.583H60.7984L60.8124 11.6255Z" fill="#5C29C4"/>
<path d="M73.4082 32.3158V11.7422H78.3853V32.3158H73.4082Z" fill="#5C29C4"/>
<path d="M91.6844 11.6255C94.5523 11.6945 97.2966 12.821 99.401 14.7931L99.7189 15.1087L95.9936 18.689L95.6637 18.3775C94.5169 17.2549 92.9781 16.6362 91.3825 16.6561C89.8063 16.6137 88.2735 17.1816 87.0973 18.244C85.8975 19.3039 85.3116 20.5499 85.3116 22.0427C85.3116 23.5355 85.8955 24.7795 87.0973 25.8415C88.2991 26.9035 89.6828 27.4152 91.3825 27.4152C93.6241 27.4152 95.5097 26.2926 96.4995 24.8706H90.6666V20.3234H102.442L102.472 20.7279C102.776 24.6076 101.447 27.4031 99.377 29.4137C97.1514 31.4486 94.4479 32.4802 91.3325 32.4802C88.2171 32.4802 85.4916 31.4486 83.302 29.4258C81.2044 27.4031 80.1406 24.9272 80.1406 22.0468C80.1406 19.1664 81.2044 16.7067 83.3 14.6596C85.4996 12.6166 88.2011 11.583 91.3325 11.583H91.6704L91.6844 11.6255Z" fill="#5C29C4"/>
<path d="M104.28 11.7422H109.251V27.3175H118.312V32.3198H104.28V11.7422Z" fill="#5C29C4"/>
<path d="M120.077 32.3158V11.7422H125.048V32.3158H120.077Z" fill="#5C29C4"/>
<path d="M128.647 11.6914L140.553 22.5173V11.6914H145.688V32.3236H144.572L132.693 21.5221V32.3236H127.576V11.6914H128.647Z" fill="#5C29C4"/>
<path d="M148.208 11.7422H153.171V19.631L158.57 11.7422H164.31L157.836 22.1675L165.36 32.3158H159.307L153.171 24.6677V32.3158H148.212L148.208 11.7422Z" fill="#5C29C4"/>
<path d="M174.385 9.51508C174.802 9.92166 175.133 10.411 175.355 10.9526C175.577 11.4941 175.687 12.0762 175.676 12.6625C175.676 13.8427 175.213 14.9746 174.388 15.8092C173.563 16.6437 172.444 17.1126 171.277 17.1126C170.111 17.1126 168.992 16.6437 168.167 15.8092C167.342 14.9746 166.878 13.8427 166.878 12.6625C166.868 12.0764 166.977 11.4944 167.199 10.9528C167.421 10.4113 167.751 9.92184 168.168 9.51508C168.576 9.10163 169.061 8.77365 169.595 8.54988C170.129 8.32611 170.701 8.21094 171.279 8.21094C171.857 8.21094 172.429 8.32611 172.963 8.54988C173.497 8.77365 173.982 9.10163 174.391 9.51508H174.385ZM171.273 9.12873C170.584 9.12953 169.909 9.33712 169.336 9.72528C168.763 10.1134 168.316 10.6647 168.053 11.3096C167.789 11.9544 167.72 12.6637 167.855 13.3481C167.99 14.0324 168.322 14.661 168.81 15.1544C169.298 15.6478 169.919 15.9838 170.596 16.1202C171.272 16.2565 171.973 16.1869 172.611 15.9203C173.248 15.6536 173.793 15.2018 174.177 14.622C174.561 14.0422 174.766 13.3603 174.767 12.6625C174.762 11.7268 174.392 10.8307 173.738 10.169C173.084 9.50736 172.198 9.13351 171.273 9.12873ZM171.977 13.4049L173.073 15.1181H171.889L170.637 13.1864V15.1181H169.66V10.1887H171.243C172.191 10.1887 172.985 10.8845 172.985 11.821V11.9687C172.984 12.284 172.886 12.5912 172.706 12.8483C172.526 13.1054 172.271 13.2998 171.977 13.4049ZM171.177 11.1677H170.629V12.5533H171.323C171.502 12.5454 171.671 12.466 171.792 12.3325C171.913 12.199 171.977 12.0223 171.969 11.8413C171.977 11.4104 171.665 11.1677 171.185 11.1677H171.177Z" fill="#5C29C4"/>
</g>
<defs>
<clipPath id="clip0_2659_7354">
<rect width="176" height="43" fill="white" transform="translate(0 0.5)"/>
</clipPath>
</defs>
</svg>
