<svg width="64" height="64" viewBox="0 0 64 64" fill="none" xmlns="http://www.w3.org/2000/svg">
<path d="M42 32C42 33.9779 41.4136 35.9112 40.3147 37.5557C39.216 39.2003 37.6541 40.4819 35.8269 41.2387C33.9995 41.9957 31.9888 42.1936 30.0491 41.8077C28.1093 41.4221 26.3275 40.4696 24.9289 39.0712C23.5304 37.6725 22.578 35.8907 22.1921 33.9509C21.8063 32.0112 22.0043 30.0005 22.7612 28.1731C23.5181 26.3459 24.7998 24.7841 26.4443 23.6853C28.0888 22.5865 30.0221 22 32 22C34.6523 22 37.1957 23.0536 39.0712 24.9289C40.9464 26.8043 42 29.3477 42 32ZM62 16V48C62 48.5304 61.7893 49.0392 61.4141 49.4141C61.0392 49.7893 60.5304 50 60 50H4C3.46957 50 2.96085 49.7893 2.58579 49.4141C2.21071 49.0392 2 48.5304 2 48V16C2 15.4696 2.21071 14.9609 2.58579 14.5858C2.96085 14.2107 3.46957 14 4 14H60C60.5304 14 61.0392 14.2107 61.4141 14.5858C61.7893 14.9609 62 15.4696 62 16ZM58 27.5875C55.7291 26.916 53.6621 25.687 51.9875 24.0125C50.3131 22.3379 49.084 20.271 48.4125 18H15.5875C14.916 20.271 13.687 22.3379 12.0125 24.0125C10.3379 25.687 8.27099 26.916 6 27.5875V36.4125C8.27099 37.084 10.3379 38.3131 12.0125 39.9875C13.687 41.6621 14.916 43.7291 15.5875 46H48.4125C49.084 43.7291 50.3131 41.6621 51.9875 39.9875C53.6621 38.3131 55.7291 37.084 58 36.4125V27.5875Z" fill="#5C29C4"/>
</svg>
