<svg width="65" height="64" viewBox="0 0 65 64" fill="none" xmlns="http://www.w3.org/2000/svg">
<path d="M32.4999 48.7333L21.4332 55.4C20.9443 55.7111 20.4332 55.8445 19.8999 55.8C19.3666 55.7556 18.8999 55.5778 18.4999 55.2667C18.0999 54.9556 17.7888 54.5662 17.5666 54.0987C17.3443 53.6311 17.2999 53.1093 17.4332 52.5333L20.3666 39.9333L10.5666 31.4667C10.1221 31.0667 9.84479 30.6107 9.73457 30.0987C9.62435 29.5867 9.65723 29.0871 9.83323 28.6C10.011 28.1111 10.2777 27.7111 10.6332 27.4C10.9888 27.0889 11.4777 26.8889 12.0999 26.8L25.0332 25.6667L30.0332 13.8C30.2555 13.2667 30.6003 12.8667 31.0679 12.6C31.5355 12.3333 32.0128 12.2 32.4999 12.2C32.9888 12.2 33.4661 12.3333 33.9319 12.6C34.3977 12.8667 34.7426 13.2667 34.9666 13.8L39.9666 25.6667L52.8999 26.8C53.5221 26.8889 54.011 27.0889 54.3666 27.4C54.7221 27.7111 54.9888 28.1111 55.1666 28.6C55.3443 29.0889 55.3781 29.5893 55.2679 30.1013C55.1577 30.6133 54.8795 31.0685 54.4332 31.4667L44.6332 39.9333L47.5666 52.5333C47.6999 53.1111 47.6555 53.6338 47.4332 54.1013C47.211 54.5689 46.8999 54.9574 46.4999 55.2667C46.0999 55.5778 45.6332 55.7556 45.0999 55.8C44.5666 55.8445 44.0555 55.7111 43.5666 55.4L32.4999 48.7333Z" fill="#5C29C4"/>
</svg>
