<svg width="16" height="15" viewBox="0 0 16 15" fill="none" xmlns="http://www.w3.org/2000/svg">
<path d="M14.2503 3.70013C13.7754 3.91596 13.2636 4.0578 12.7333 4.12563C13.2759 3.7988 13.6953 3.2808 13.8926 2.65796C13.3808 2.9663 12.8134 3.18213 12.2153 3.30546C11.7281 2.77513 11.0436 2.4668 10.2666 2.4668C8.81744 2.4668 7.63344 3.6508 7.63344 5.1123C7.63344 5.32196 7.65811 5.52546 7.70128 5.71663C5.50594 5.60563 3.55111 4.55113 2.24994 2.95396C2.02178 3.34246 1.89228 3.7988 1.89228 4.2798C1.89228 5.19863 2.35478 6.01263 3.07011 6.47513C2.63228 6.47513 2.22528 6.3518 1.86761 6.1668V6.1853C1.86761 7.46796 2.78028 8.54096 3.98894 8.78146C3.60089 8.88766 3.1935 8.90244 2.79878 8.82463C2.96627 9.35033 3.29429 9.81032 3.73674 10.1399C4.17918 10.4696 4.7138 10.6522 5.26544 10.6623C4.33035 11.4026 3.17124 11.8027 1.97861 11.797C1.76894 11.797 1.55928 11.7846 1.34961 11.76C2.52128 12.5123 3.91494 12.9501 5.40728 12.9501C10.2666 12.9501 12.9368 8.91713 12.9368 5.42063C12.9368 5.30346 12.9368 5.19246 12.9306 5.0753C13.4486 4.7053 13.8926 4.23663 14.2503 3.70013Z" fill="white"/>
</svg>
